%TF.GenerationSoftware,KiCad,Pcbnew,7.0.10*%
%TF.CreationDate,2023-12-31T17:53:47-05:00*%
%TF.ProjectId,SRX Mag Encoder to SPARK MAX,53525820-4d61-4672-9045-6e636f646572,rev?*%
%TF.SameCoordinates,Original*%
%TF.FileFunction,Legend,Bot*%
%TF.FilePolarity,Positive*%
%FSLAX46Y46*%
G04 Gerber Fmt 4.6, Leading zero omitted, Abs format (unit mm)*
G04 Created by KiCad (PCBNEW 7.0.10) date 2023-12-31 17:53:47*
%MOMM*%
%LPD*%
G01*
G04 APERTURE LIST*
%ADD10C,0.150000*%
%ADD11C,0.152400*%
G04 APERTURE END LIST*
D10*
G36*
X186603538Y-107096107D02*
G01*
X186373217Y-107096107D01*
X186186371Y-107772171D01*
X185994884Y-107096107D01*
X185774333Y-107096107D01*
X185774333Y-108034000D01*
X185919902Y-108034000D01*
X185919902Y-107233616D01*
X186142407Y-108034000D01*
X186255247Y-108034000D01*
X186473600Y-107232883D01*
X186473600Y-108034000D01*
X186603538Y-108034000D01*
X186603538Y-107096107D01*
G37*
G36*
X185598722Y-107096107D02*
G01*
X185443384Y-107096107D01*
X185443384Y-107486896D01*
X185167145Y-107486896D01*
X185167145Y-107096107D01*
X185012051Y-107096107D01*
X185012051Y-108034000D01*
X185167145Y-108034000D01*
X185167145Y-107611948D01*
X185443384Y-107611948D01*
X185443384Y-108034000D01*
X185598722Y-108034000D01*
X185598722Y-107096107D01*
G37*
G36*
X184480334Y-107393106D02*
G01*
X184619797Y-107364041D01*
X184616506Y-107346930D01*
X184612798Y-107330340D01*
X184608675Y-107314270D01*
X184604135Y-107298722D01*
X184599180Y-107283694D01*
X184593808Y-107269187D01*
X184588021Y-107255202D01*
X184581817Y-107241737D01*
X184575198Y-107228793D01*
X184568163Y-107216370D01*
X184560711Y-107204468D01*
X184552844Y-107193087D01*
X184544561Y-107182226D01*
X184535862Y-107171887D01*
X184526746Y-107162069D01*
X184517215Y-107152771D01*
X184507278Y-107144017D01*
X184497008Y-107135827D01*
X184486403Y-107128202D01*
X184475465Y-107121142D01*
X184464192Y-107114647D01*
X184452586Y-107108716D01*
X184440646Y-107103350D01*
X184428372Y-107098549D01*
X184415764Y-107094313D01*
X184402822Y-107090642D01*
X184389546Y-107087536D01*
X184375936Y-107084994D01*
X184361992Y-107083017D01*
X184347714Y-107081605D01*
X184333103Y-107080758D01*
X184318157Y-107080475D01*
X184301894Y-107080777D01*
X184286077Y-107081681D01*
X184270707Y-107083189D01*
X184255784Y-107085299D01*
X184241307Y-107088013D01*
X184227276Y-107091329D01*
X184213692Y-107095248D01*
X184200554Y-107099771D01*
X184187863Y-107104896D01*
X184175619Y-107110624D01*
X184163821Y-107116955D01*
X184152469Y-107123890D01*
X184141564Y-107131427D01*
X184131105Y-107139567D01*
X184121093Y-107148310D01*
X184111528Y-107157656D01*
X184102448Y-107167441D01*
X184093954Y-107177562D01*
X184086045Y-107188019D01*
X184078723Y-107198811D01*
X184071986Y-107209939D01*
X184065835Y-107221404D01*
X184060270Y-107233204D01*
X184055291Y-107245339D01*
X184050897Y-107257811D01*
X184047090Y-107270618D01*
X184043868Y-107283762D01*
X184041232Y-107297241D01*
X184039181Y-107311056D01*
X184037717Y-107325207D01*
X184036838Y-107339693D01*
X184036545Y-107354516D01*
X184036967Y-107371865D01*
X184038232Y-107389107D01*
X184040341Y-107406242D01*
X184043292Y-107423270D01*
X184047088Y-107440192D01*
X184051726Y-107457006D01*
X184057209Y-107473714D01*
X184063534Y-107490315D01*
X184070703Y-107506809D01*
X184078715Y-107523196D01*
X184087571Y-107539476D01*
X184097270Y-107555650D01*
X184107813Y-107571716D01*
X184119199Y-107587676D01*
X184125208Y-107595616D01*
X184131428Y-107603529D01*
X184137859Y-107611415D01*
X184144501Y-107619275D01*
X184151325Y-107627129D01*
X184158336Y-107635029D01*
X184165531Y-107642974D01*
X184172913Y-107650966D01*
X184180480Y-107659003D01*
X184188232Y-107667086D01*
X184196171Y-107675214D01*
X184204294Y-107683389D01*
X184212604Y-107691609D01*
X184221098Y-107699875D01*
X184229779Y-107708187D01*
X184238645Y-107716545D01*
X184247696Y-107724948D01*
X184256933Y-107733398D01*
X184266356Y-107741893D01*
X184275964Y-107750434D01*
X184285758Y-107759020D01*
X184295737Y-107767653D01*
X184305902Y-107776331D01*
X184316253Y-107785055D01*
X184326789Y-107793825D01*
X184337511Y-107802640D01*
X184348418Y-107811502D01*
X184359511Y-107820409D01*
X184370789Y-107829362D01*
X184382253Y-107838361D01*
X184393902Y-107847406D01*
X184405737Y-107856496D01*
X184417758Y-107865632D01*
X184429964Y-107874814D01*
X184442356Y-107884042D01*
X184454933Y-107893316D01*
X184030928Y-107893316D01*
X184037766Y-108034000D01*
X184619797Y-108034000D01*
X184619797Y-107894781D01*
X184602939Y-107880281D01*
X184586467Y-107866030D01*
X184570380Y-107852027D01*
X184554680Y-107838273D01*
X184539365Y-107824768D01*
X184524437Y-107811510D01*
X184509894Y-107798502D01*
X184495737Y-107785742D01*
X184481966Y-107773230D01*
X184468581Y-107760967D01*
X184455582Y-107748953D01*
X184442969Y-107737187D01*
X184430742Y-107725670D01*
X184418901Y-107714401D01*
X184407445Y-107703381D01*
X184396376Y-107692609D01*
X184385693Y-107682086D01*
X184375395Y-107671811D01*
X184365483Y-107661785D01*
X184355958Y-107652008D01*
X184346818Y-107642478D01*
X184338064Y-107633198D01*
X184329696Y-107624166D01*
X184321714Y-107615383D01*
X184314118Y-107606848D01*
X184306908Y-107598561D01*
X184300083Y-107590523D01*
X184293645Y-107582734D01*
X184281926Y-107567901D01*
X184271751Y-107554062D01*
X184262642Y-107540774D01*
X184254120Y-107527654D01*
X184246186Y-107514701D01*
X184238839Y-107501916D01*
X184232081Y-107489300D01*
X184225910Y-107476851D01*
X184220327Y-107464570D01*
X184215331Y-107452457D01*
X184210923Y-107440512D01*
X184207103Y-107428735D01*
X184203871Y-107417126D01*
X184201226Y-107405685D01*
X184199169Y-107394411D01*
X184197700Y-107383306D01*
X184196818Y-107372369D01*
X184196524Y-107361599D01*
X184196836Y-107348993D01*
X184197769Y-107336821D01*
X184199326Y-107325082D01*
X184201505Y-107313777D01*
X184204306Y-107302906D01*
X184207730Y-107292468D01*
X184211776Y-107282464D01*
X184216445Y-107272893D01*
X184221737Y-107263756D01*
X184227651Y-107255053D01*
X184231939Y-107249491D01*
X184238799Y-107241635D01*
X184246096Y-107234551D01*
X184253831Y-107228239D01*
X184262004Y-107222701D01*
X184270615Y-107217935D01*
X184279664Y-107213943D01*
X184289151Y-107210723D01*
X184299076Y-107208275D01*
X184309438Y-107206601D01*
X184320239Y-107205699D01*
X184327683Y-107205528D01*
X184343363Y-107206260D01*
X184358224Y-107208459D01*
X184372267Y-107212122D01*
X184385492Y-107217251D01*
X184397898Y-107223846D01*
X184409485Y-107231906D01*
X184420254Y-107241431D01*
X184430204Y-107252422D01*
X184439335Y-107264879D01*
X184447648Y-107278801D01*
X184455142Y-107294188D01*
X184461818Y-107311041D01*
X184467675Y-107329359D01*
X184470296Y-107339068D01*
X184472713Y-107349143D01*
X184474926Y-107359584D01*
X184476933Y-107370392D01*
X184478736Y-107381566D01*
X184480334Y-107393106D01*
G37*
G36*
X183767145Y-107346212D02*
G01*
X183897571Y-107315193D01*
X183893385Y-107300752D01*
X183888885Y-107286770D01*
X183884073Y-107273246D01*
X183878948Y-107260181D01*
X183873509Y-107247574D01*
X183867758Y-107235426D01*
X183861694Y-107223736D01*
X183855317Y-107212504D01*
X183848627Y-107201731D01*
X183841624Y-107191416D01*
X183834308Y-107181560D01*
X183826680Y-107172162D01*
X183818738Y-107163222D01*
X183810483Y-107154741D01*
X183801916Y-107146719D01*
X183793035Y-107139155D01*
X183783842Y-107132049D01*
X183774335Y-107125402D01*
X183764516Y-107119213D01*
X183754384Y-107113483D01*
X183743938Y-107108211D01*
X183733180Y-107103397D01*
X183722109Y-107099042D01*
X183710725Y-107095145D01*
X183699028Y-107091707D01*
X183687018Y-107088727D01*
X183674696Y-107086206D01*
X183662060Y-107084143D01*
X183649111Y-107082538D01*
X183635850Y-107081392D01*
X183622275Y-107080705D01*
X183608387Y-107080475D01*
X183592545Y-107080745D01*
X183577136Y-107081555D01*
X183562160Y-107082905D01*
X183547617Y-107084795D01*
X183533507Y-107087225D01*
X183519830Y-107090196D01*
X183506587Y-107093706D01*
X183493777Y-107097756D01*
X183481399Y-107102346D01*
X183469455Y-107107476D01*
X183457944Y-107113146D01*
X183446867Y-107119356D01*
X183436222Y-107126106D01*
X183426011Y-107133396D01*
X183416232Y-107141226D01*
X183406887Y-107149596D01*
X183398014Y-107158401D01*
X183389714Y-107167598D01*
X183381986Y-107177185D01*
X183374830Y-107187164D01*
X183368247Y-107197534D01*
X183362237Y-107208295D01*
X183356798Y-107219447D01*
X183351933Y-107230990D01*
X183347639Y-107242925D01*
X183343918Y-107255250D01*
X183340770Y-107267967D01*
X183338194Y-107281075D01*
X183336190Y-107294574D01*
X183334759Y-107308465D01*
X183333901Y-107322746D01*
X183333614Y-107337419D01*
X183334186Y-107355999D01*
X183335900Y-107373884D01*
X183338758Y-107391071D01*
X183342758Y-107407562D01*
X183347902Y-107423357D01*
X183354188Y-107438455D01*
X183361617Y-107452857D01*
X183370190Y-107466562D01*
X183379905Y-107479571D01*
X183390763Y-107491883D01*
X183402765Y-107503499D01*
X183415909Y-107514419D01*
X183430196Y-107524642D01*
X183445626Y-107534168D01*
X183462200Y-107542998D01*
X183479916Y-107551131D01*
X183469307Y-107554116D01*
X183459035Y-107557361D01*
X183449100Y-107560867D01*
X183439501Y-107564633D01*
X183430240Y-107568660D01*
X183421315Y-107572947D01*
X183404475Y-107582303D01*
X183388983Y-107592700D01*
X183374838Y-107604140D01*
X183362040Y-107616621D01*
X183350589Y-107630144D01*
X183340486Y-107644709D01*
X183331729Y-107660316D01*
X183324320Y-107676964D01*
X183318258Y-107694655D01*
X183313542Y-107713387D01*
X183311690Y-107723144D01*
X183310175Y-107733161D01*
X183308996Y-107743439D01*
X183308154Y-107753977D01*
X183307649Y-107764776D01*
X183307480Y-107775835D01*
X183307813Y-107791560D01*
X183308812Y-107806861D01*
X183310477Y-107821739D01*
X183312808Y-107836193D01*
X183315805Y-107850224D01*
X183319467Y-107863831D01*
X183323796Y-107877014D01*
X183328790Y-107889774D01*
X183334451Y-107902110D01*
X183340777Y-107914023D01*
X183347770Y-107925512D01*
X183355428Y-107936577D01*
X183363753Y-107947219D01*
X183372743Y-107957437D01*
X183382399Y-107967232D01*
X183392721Y-107976602D01*
X183403537Y-107985446D01*
X183414737Y-107993719D01*
X183426321Y-108001421D01*
X183438288Y-108008552D01*
X183450638Y-108015114D01*
X183463372Y-108021104D01*
X183476490Y-108026524D01*
X183489991Y-108031374D01*
X183503875Y-108035653D01*
X183518144Y-108039361D01*
X183532795Y-108042499D01*
X183547831Y-108045067D01*
X183563249Y-108047064D01*
X183579052Y-108048490D01*
X183595238Y-108049346D01*
X183611807Y-108049631D01*
X183626688Y-108049400D01*
X183641288Y-108048707D01*
X183655607Y-108047553D01*
X183669647Y-108045937D01*
X183683405Y-108043859D01*
X183696884Y-108041319D01*
X183710081Y-108038318D01*
X183722998Y-108034854D01*
X183735635Y-108030929D01*
X183747991Y-108026542D01*
X183760067Y-108021694D01*
X183771862Y-108016383D01*
X183783377Y-108010611D01*
X183794611Y-108004377D01*
X183805565Y-107997682D01*
X183816238Y-107990524D01*
X183826501Y-107982853D01*
X183836285Y-107974614D01*
X183845590Y-107965809D01*
X183854416Y-107956437D01*
X183862764Y-107946499D01*
X183870632Y-107935993D01*
X183878021Y-107924921D01*
X183884931Y-107913282D01*
X183891363Y-107901077D01*
X183897315Y-107888305D01*
X183902789Y-107874966D01*
X183907783Y-107861060D01*
X183912299Y-107846588D01*
X183916336Y-107831549D01*
X183919893Y-107815943D01*
X183922972Y-107799771D01*
X183789860Y-107768263D01*
X183787610Y-107777880D01*
X183782529Y-107796199D01*
X183776671Y-107813296D01*
X183770036Y-107829171D01*
X183762625Y-107843826D01*
X183754437Y-107857259D01*
X183745473Y-107869471D01*
X183735732Y-107880462D01*
X183725214Y-107890232D01*
X183713920Y-107898781D01*
X183701849Y-107906108D01*
X183689001Y-107912214D01*
X183675377Y-107917099D01*
X183660976Y-107920762D01*
X183645799Y-107923205D01*
X183629845Y-107924426D01*
X183621577Y-107924579D01*
X183610272Y-107924237D01*
X183599254Y-107923213D01*
X183588524Y-107921507D01*
X183578082Y-107919118D01*
X183567928Y-107916046D01*
X183558061Y-107912291D01*
X183548482Y-107907854D01*
X183539190Y-107902734D01*
X183530187Y-107896932D01*
X183521470Y-107890447D01*
X183515819Y-107885744D01*
X183507832Y-107878063D01*
X183500630Y-107869584D01*
X183494213Y-107860306D01*
X183488583Y-107850230D01*
X183483738Y-107839355D01*
X183479678Y-107827681D01*
X183476405Y-107815209D01*
X183473917Y-107801938D01*
X183472214Y-107787869D01*
X183471516Y-107778046D01*
X183471167Y-107767868D01*
X183471123Y-107762646D01*
X183471479Y-107750404D01*
X183472548Y-107738592D01*
X183474330Y-107727209D01*
X183476825Y-107716255D01*
X183480032Y-107705730D01*
X183483951Y-107695635D01*
X183488584Y-107685970D01*
X183493929Y-107676733D01*
X183499987Y-107667926D01*
X183506758Y-107659549D01*
X183511667Y-107654202D01*
X183519866Y-107646651D01*
X183529259Y-107639842D01*
X183539844Y-107633776D01*
X183551624Y-107628453D01*
X183564597Y-107623873D01*
X183578764Y-107620036D01*
X183588871Y-107617890D01*
X183599509Y-107616074D01*
X183610677Y-107614589D01*
X183622376Y-107613433D01*
X183634605Y-107612608D01*
X183647365Y-107612113D01*
X183660655Y-107611948D01*
X183719762Y-107611948D01*
X183719762Y-107502527D01*
X183660655Y-107502527D01*
X183649593Y-107502435D01*
X183639029Y-107502158D01*
X183628962Y-107501696D01*
X183616315Y-107500794D01*
X183604553Y-107499563D01*
X183593677Y-107498004D01*
X183583686Y-107496117D01*
X183572442Y-107493296D01*
X183568332Y-107492025D01*
X183558548Y-107488140D01*
X183549193Y-107483052D01*
X183540268Y-107476758D01*
X183531772Y-107469260D01*
X183523705Y-107460558D01*
X183517561Y-107452729D01*
X183513133Y-107446351D01*
X183507637Y-107437177D01*
X183502875Y-107427361D01*
X183498845Y-107416905D01*
X183495547Y-107405807D01*
X183492983Y-107394068D01*
X183491151Y-107381688D01*
X183490052Y-107368667D01*
X183489708Y-107358480D01*
X183489685Y-107355004D01*
X183489988Y-107342426D01*
X183490896Y-107330338D01*
X183492410Y-107318739D01*
X183494528Y-107307629D01*
X183497252Y-107297009D01*
X183500582Y-107286878D01*
X183504517Y-107277236D01*
X183509057Y-107268084D01*
X183514203Y-107259422D01*
X183519953Y-107251249D01*
X183524124Y-107246072D01*
X183530771Y-107238826D01*
X183540369Y-107230274D01*
X183550807Y-107222989D01*
X183562084Y-107216970D01*
X183574201Y-107212219D01*
X183583839Y-107209487D01*
X183593950Y-107207468D01*
X183604533Y-107206161D01*
X183615588Y-107205567D01*
X183619378Y-107205528D01*
X183633236Y-107206077D01*
X183646478Y-107207726D01*
X183659103Y-107210474D01*
X183671112Y-107214321D01*
X183682505Y-107219266D01*
X183693281Y-107225311D01*
X183703441Y-107232456D01*
X183712984Y-107240699D01*
X183721912Y-107250041D01*
X183730223Y-107260482D01*
X183737917Y-107272023D01*
X183744996Y-107284662D01*
X183751458Y-107298401D01*
X183757303Y-107313239D01*
X183762532Y-107329176D01*
X183767145Y-107346212D01*
G37*
G36*
X183110376Y-107096107D02*
G01*
X182622623Y-107096107D01*
X182637034Y-107236791D01*
X182993628Y-107236791D01*
X183007306Y-107497398D01*
X182998987Y-107486662D01*
X182990335Y-107476618D01*
X182981348Y-107467267D01*
X182972028Y-107458609D01*
X182962374Y-107450644D01*
X182952386Y-107443371D01*
X182942063Y-107436790D01*
X182931407Y-107430903D01*
X182920417Y-107425708D01*
X182909094Y-107421206D01*
X182897436Y-107417396D01*
X182885444Y-107414279D01*
X182873118Y-107411855D01*
X182860459Y-107410123D01*
X182847465Y-107409084D01*
X182834138Y-107408738D01*
X182819636Y-107409057D01*
X182805500Y-107410016D01*
X182791731Y-107411614D01*
X182778328Y-107413852D01*
X182765292Y-107416728D01*
X182752622Y-107420244D01*
X182740318Y-107424399D01*
X182728381Y-107429193D01*
X182716810Y-107434627D01*
X182705605Y-107440699D01*
X182694767Y-107447411D01*
X182684295Y-107454762D01*
X182674189Y-107462753D01*
X182664450Y-107471382D01*
X182655077Y-107480651D01*
X182646071Y-107490559D01*
X182637494Y-107501040D01*
X182629470Y-107512026D01*
X182621999Y-107523518D01*
X182615082Y-107535515D01*
X182608719Y-107548018D01*
X182602908Y-107561027D01*
X182597651Y-107574541D01*
X182592948Y-107588562D01*
X182588798Y-107603087D01*
X182585201Y-107618119D01*
X182582157Y-107633656D01*
X182579667Y-107649699D01*
X182577730Y-107666247D01*
X182576347Y-107683301D01*
X182575517Y-107700861D01*
X182575240Y-107718926D01*
X182575572Y-107738254D01*
X182576568Y-107757036D01*
X182578228Y-107775272D01*
X182580553Y-107792962D01*
X182583541Y-107810107D01*
X182587193Y-107826706D01*
X182591509Y-107842759D01*
X182596489Y-107858267D01*
X182602134Y-107873229D01*
X182608442Y-107887645D01*
X182615414Y-107901515D01*
X182623051Y-107914840D01*
X182631351Y-107927618D01*
X182640316Y-107939852D01*
X182649944Y-107951539D01*
X182660237Y-107962681D01*
X182671045Y-107973210D01*
X182682280Y-107983060D01*
X182693942Y-107992230D01*
X182706032Y-108000721D01*
X182718550Y-108008533D01*
X182731495Y-108015666D01*
X182744867Y-108022119D01*
X182758667Y-108027893D01*
X182772894Y-108032988D01*
X182787548Y-108037404D01*
X182802630Y-108041140D01*
X182818140Y-108044197D01*
X182834077Y-108046574D01*
X182850441Y-108048272D01*
X182867233Y-108049291D01*
X182884452Y-108049631D01*
X182898164Y-108049401D01*
X182911639Y-108048711D01*
X182924878Y-108047562D01*
X182937880Y-108045952D01*
X182950645Y-108043883D01*
X182963174Y-108041353D01*
X182975467Y-108038364D01*
X182987522Y-108034915D01*
X182999341Y-108031007D01*
X183010924Y-108026638D01*
X183022270Y-108021809D01*
X183033379Y-108016521D01*
X183044251Y-108010773D01*
X183054887Y-108004564D01*
X183065287Y-107997896D01*
X183075450Y-107990769D01*
X183085263Y-107983161D01*
X183094615Y-107975114D01*
X183103505Y-107966629D01*
X183111933Y-107957704D01*
X183119900Y-107948341D01*
X183127405Y-107938539D01*
X183134448Y-107928298D01*
X183141029Y-107917618D01*
X183147148Y-107906499D01*
X183152806Y-107894941D01*
X183158002Y-107882945D01*
X183162736Y-107870509D01*
X183167008Y-107857635D01*
X183170819Y-107844322D01*
X183174168Y-107830570D01*
X183177055Y-107816379D01*
X183039057Y-107783895D01*
X183034659Y-107800931D01*
X183029524Y-107816868D01*
X183023653Y-107831705D01*
X183017045Y-107845444D01*
X183009701Y-107858084D01*
X183001620Y-107869624D01*
X182992802Y-107880065D01*
X182983248Y-107889408D01*
X182972957Y-107897651D01*
X182961930Y-107904795D01*
X182950166Y-107910840D01*
X182937666Y-107915786D01*
X182924429Y-107919633D01*
X182910456Y-107922381D01*
X182895746Y-107924029D01*
X182880300Y-107924579D01*
X182861667Y-107923798D01*
X182844236Y-107921457D01*
X182828007Y-107917555D01*
X182812980Y-107912092D01*
X182799156Y-107905068D01*
X182786533Y-107896483D01*
X182775113Y-107886338D01*
X182764895Y-107874631D01*
X182755879Y-107861364D01*
X182748065Y-107846535D01*
X182741453Y-107830146D01*
X182736044Y-107812196D01*
X182733790Y-107802636D01*
X182731836Y-107792686D01*
X182730183Y-107782345D01*
X182728831Y-107771614D01*
X182727779Y-107760493D01*
X182727028Y-107748981D01*
X182726577Y-107737080D01*
X182726427Y-107724788D01*
X182726575Y-107713648D01*
X182727022Y-107702821D01*
X182727766Y-107692308D01*
X182728808Y-107682107D01*
X182730147Y-107672219D01*
X182732715Y-107657973D01*
X182735952Y-107644432D01*
X182739859Y-107631595D01*
X182744436Y-107619462D01*
X182749682Y-107608033D01*
X182755598Y-107597309D01*
X182762184Y-107587288D01*
X182764528Y-107584104D01*
X182771984Y-107575113D01*
X182780062Y-107567005D01*
X182788762Y-107559782D01*
X182798085Y-107553444D01*
X182808031Y-107547990D01*
X182818599Y-107543421D01*
X182829789Y-107539735D01*
X182841602Y-107536935D01*
X182854038Y-107535019D01*
X182867096Y-107533987D01*
X182876147Y-107533790D01*
X182888886Y-107534218D01*
X182901152Y-107535500D01*
X182912944Y-107537637D01*
X182924263Y-107540629D01*
X182935109Y-107544476D01*
X182945482Y-107549177D01*
X182955381Y-107554734D01*
X182964808Y-107561145D01*
X182973761Y-107568412D01*
X182982240Y-107576533D01*
X182990247Y-107585509D01*
X182997780Y-107595339D01*
X183004841Y-107606025D01*
X183011427Y-107617565D01*
X183017541Y-107629961D01*
X183023182Y-107643211D01*
X183139930Y-107618054D01*
X183110376Y-107096107D01*
G37*
G36*
X182334905Y-107393106D02*
G01*
X182474368Y-107364041D01*
X182471076Y-107346930D01*
X182467369Y-107330340D01*
X182463245Y-107314270D01*
X182458706Y-107298722D01*
X182453750Y-107283694D01*
X182448379Y-107269187D01*
X182442592Y-107255202D01*
X182436388Y-107241737D01*
X182429769Y-107228793D01*
X182422733Y-107216370D01*
X182415282Y-107204468D01*
X182407415Y-107193087D01*
X182399132Y-107182226D01*
X182390432Y-107171887D01*
X182381317Y-107162069D01*
X182371786Y-107152771D01*
X182361849Y-107144017D01*
X182351579Y-107135827D01*
X182340974Y-107128202D01*
X182330036Y-107121142D01*
X182318763Y-107114647D01*
X182307157Y-107108716D01*
X182295217Y-107103350D01*
X182282943Y-107098549D01*
X182270335Y-107094313D01*
X182257393Y-107090642D01*
X182244117Y-107087536D01*
X182230507Y-107084994D01*
X182216563Y-107083017D01*
X182202285Y-107081605D01*
X182187674Y-107080758D01*
X182172728Y-107080475D01*
X182156465Y-107080777D01*
X182140648Y-107081681D01*
X182125278Y-107083189D01*
X182110355Y-107085299D01*
X182095877Y-107088013D01*
X182081847Y-107091329D01*
X182068263Y-107095248D01*
X182055125Y-107099771D01*
X182042434Y-107104896D01*
X182030189Y-107110624D01*
X182018391Y-107116955D01*
X182007040Y-107123890D01*
X181996135Y-107131427D01*
X181985676Y-107139567D01*
X181975664Y-107148310D01*
X181966099Y-107157656D01*
X181957019Y-107167441D01*
X181948525Y-107177562D01*
X181940616Y-107188019D01*
X181933294Y-107198811D01*
X181926557Y-107209939D01*
X181920406Y-107221404D01*
X181914841Y-107233204D01*
X181909862Y-107245339D01*
X181905468Y-107257811D01*
X181901660Y-107270618D01*
X181898439Y-107283762D01*
X181895802Y-107297241D01*
X181893752Y-107311056D01*
X181892288Y-107325207D01*
X181891409Y-107339693D01*
X181891116Y-107354516D01*
X181891538Y-107371865D01*
X181892803Y-107389107D01*
X181894911Y-107406242D01*
X181897863Y-107423270D01*
X181901659Y-107440192D01*
X181906297Y-107457006D01*
X181911779Y-107473714D01*
X181918105Y-107490315D01*
X181925274Y-107506809D01*
X181933286Y-107523196D01*
X181942142Y-107539476D01*
X181951841Y-107555650D01*
X181962383Y-107571716D01*
X181973769Y-107587676D01*
X181979779Y-107595616D01*
X181985999Y-107603529D01*
X181992430Y-107611415D01*
X181999071Y-107619275D01*
X182005896Y-107627129D01*
X182012906Y-107635029D01*
X182020102Y-107642974D01*
X182027484Y-107650966D01*
X182035051Y-107659003D01*
X182042803Y-107667086D01*
X182050741Y-107675214D01*
X182058865Y-107683389D01*
X182067174Y-107691609D01*
X182075669Y-107699875D01*
X182084350Y-107708187D01*
X182093216Y-107716545D01*
X182102267Y-107724948D01*
X182111504Y-107733398D01*
X182120927Y-107741893D01*
X182130535Y-107750434D01*
X182140329Y-107759020D01*
X182150308Y-107767653D01*
X182160473Y-107776331D01*
X182170824Y-107785055D01*
X182181360Y-107793825D01*
X182192081Y-107802640D01*
X182202989Y-107811502D01*
X182214081Y-107820409D01*
X182225360Y-107829362D01*
X182236824Y-107838361D01*
X182248473Y-107847406D01*
X182260308Y-107856496D01*
X182272329Y-107865632D01*
X182284535Y-107874814D01*
X182296927Y-107884042D01*
X182309504Y-107893316D01*
X181885498Y-107893316D01*
X181892337Y-108034000D01*
X182474368Y-108034000D01*
X182474368Y-107894781D01*
X182457510Y-107880281D01*
X182441037Y-107866030D01*
X182424951Y-107852027D01*
X182409251Y-107838273D01*
X182393936Y-107824768D01*
X182379007Y-107811510D01*
X182364465Y-107798502D01*
X182350308Y-107785742D01*
X182336537Y-107773230D01*
X182323152Y-107760967D01*
X182310153Y-107748953D01*
X182297540Y-107737187D01*
X182285313Y-107725670D01*
X182273472Y-107714401D01*
X182262016Y-107703381D01*
X182250947Y-107692609D01*
X182240263Y-107682086D01*
X182229966Y-107671811D01*
X182220054Y-107661785D01*
X182210528Y-107652008D01*
X182201389Y-107642478D01*
X182192635Y-107633198D01*
X182184267Y-107624166D01*
X182176285Y-107615383D01*
X182168689Y-107606848D01*
X182161479Y-107598561D01*
X182154654Y-107590523D01*
X182148216Y-107582734D01*
X182136497Y-107567901D01*
X182126322Y-107554062D01*
X182117212Y-107540774D01*
X182108691Y-107527654D01*
X182100757Y-107514701D01*
X182093410Y-107501916D01*
X182086652Y-107489300D01*
X182080481Y-107476851D01*
X182074897Y-107464570D01*
X182069902Y-107452457D01*
X182065494Y-107440512D01*
X182061674Y-107428735D01*
X182058441Y-107417126D01*
X182055797Y-107405685D01*
X182053740Y-107394411D01*
X182052271Y-107383306D01*
X182051389Y-107372369D01*
X182051095Y-107361599D01*
X182051406Y-107348993D01*
X182052340Y-107336821D01*
X182053897Y-107325082D01*
X182056075Y-107313777D01*
X182058877Y-107302906D01*
X182062301Y-107292468D01*
X182066347Y-107282464D01*
X182071016Y-107272893D01*
X182076308Y-107263756D01*
X182082222Y-107255053D01*
X182086510Y-107249491D01*
X182093370Y-107241635D01*
X182100667Y-107234551D01*
X182108402Y-107228239D01*
X182116575Y-107222701D01*
X182125186Y-107217935D01*
X182134235Y-107213943D01*
X182143722Y-107210723D01*
X182153647Y-107208275D01*
X182164009Y-107206601D01*
X182174810Y-107205699D01*
X182182254Y-107205528D01*
X182197934Y-107206260D01*
X182212795Y-107208459D01*
X182226838Y-107212122D01*
X182240063Y-107217251D01*
X182252469Y-107223846D01*
X182264056Y-107231906D01*
X182274824Y-107241431D01*
X182284774Y-107252422D01*
X182293906Y-107264879D01*
X182302219Y-107278801D01*
X182309713Y-107294188D01*
X182316389Y-107311041D01*
X182322246Y-107329359D01*
X182324867Y-107339068D01*
X182327284Y-107349143D01*
X182329496Y-107359584D01*
X182331504Y-107370392D01*
X182333307Y-107381566D01*
X182334905Y-107393106D01*
G37*
D11*
%TO.C,*%
X175390400Y-105079800D02*
X172037600Y-105079800D01*
X175390400Y-104802940D02*
X175390400Y-105079800D01*
X175390400Y-98120200D02*
X175390400Y-98397060D01*
X172037600Y-105079800D02*
X172037600Y-104802940D01*
X172037600Y-98397060D02*
X172037600Y-98120200D01*
X172037600Y-98120200D02*
X175390400Y-98120200D01*
%TD*%
M02*
