%TF.GenerationSoftware,KiCad,Pcbnew,7.0.10*%
%TF.CreationDate,2023-12-31T17:53:47-05:00*%
%TF.ProjectId,SRX Mag Encoder to SPARK MAX,53525820-4d61-4672-9045-6e636f646572,rev?*%
%TF.SameCoordinates,Original*%
%TF.FileFunction,Copper,L1,Top*%
%TF.FilePolarity,Positive*%
%FSLAX46Y46*%
G04 Gerber Fmt 4.6, Leading zero omitted, Abs format (unit mm)*
G04 Created by KiCad (PCBNEW 7.0.10) date 2023-12-31 17:53:47*
%MOMM*%
%LPD*%
G01*
G04 APERTURE LIST*
%TA.AperFunction,SMDPad,CuDef*%
%ADD10R,2.770000X0.650000*%
%TD*%
%TA.AperFunction,SMDPad,CuDef*%
%ADD11R,10.000000X2.000000*%
%TD*%
%TA.AperFunction,ViaPad*%
%ADD12C,0.800000*%
%TD*%
%TA.AperFunction,ViaPad*%
%ADD13C,4.000000*%
%TD*%
%TA.AperFunction,Conductor*%
%ADD14C,0.250000*%
%TD*%
G04 APERTURE END LIST*
D10*
%TO.P,J1,1,Pin_1*%
%TO.N,+3.3V*%
X162560000Y-99060000D03*
%TO.P,J1,2,Pin_2*%
%TO.N,+5V*%
X166590000Y-99060000D03*
%TO.P,J1,3,Pin_3*%
%TO.N,unconnected-(J1-Pin_3-Pad3)*%
X162560000Y-100330000D03*
%TO.P,J1,4,Pin_4*%
%TO.N,FLMT*%
X166590000Y-100330000D03*
%TO.P,J1,5,Pin_5*%
%TO.N,QB*%
X162560000Y-101600000D03*
%TO.P,J1,6,Pin_6*%
%TO.N,unconnected-(J1-Pin_6-Pad6)*%
X166590000Y-101600000D03*
%TO.P,J1,7,Pin_7*%
%TO.N,QA*%
X162560000Y-102870000D03*
%TO.P,J1,8,Pin_8*%
%TO.N,RLMT*%
X166590000Y-102870000D03*
%TO.P,J1,9,Pin_9*%
%TO.N,PWM*%
X162560000Y-104140000D03*
%TO.P,J1,10,Pin_10*%
%TO.N,GND*%
X166590000Y-104140000D03*
%TD*%
D11*
%TO.P,QA,1,Pin_1*%
%TO.N,QA*%
X175514000Y-99060000D03*
%TO.P,QA,2,Pin_2*%
%TO.N,QB*%
X175514000Y-104140000D03*
%TD*%
D12*
%TO.N,GND*%
X160020000Y-99060000D03*
X160020000Y-101600000D03*
X160020000Y-104140000D03*
X180340000Y-96520000D03*
X177800000Y-96520000D03*
X175260000Y-96520000D03*
X172720000Y-96520000D03*
X170180000Y-96520000D03*
X167640000Y-96520000D03*
X165100000Y-96520000D03*
X162560000Y-96520000D03*
X160020000Y-96520000D03*
X180340000Y-106680000D03*
X177800000Y-106680000D03*
X175260000Y-106680000D03*
X172720000Y-106680000D03*
X170180000Y-106680000D03*
X167640000Y-106680000D03*
X165100000Y-106680000D03*
X162560000Y-106680000D03*
X160020000Y-106680000D03*
D13*
%TO.N,*%
X183896000Y-104140000D03*
X183896000Y-99060000D03*
D12*
%TO.N,GND*%
X169164000Y-103632000D03*
%TO.N,PWM*%
X174071800Y-105918000D03*
%TO.N,RLMT*%
X173714000Y-102370000D03*
%TO.N,FLMT*%
X173714000Y-100767500D03*
%TO.N,+5V*%
X168610900Y-99060000D03*
%TO.N,+3.3V*%
X169618100Y-98495100D03*
%TD*%
D14*
%TO.N,GND*%
X168656000Y-104140000D02*
X169164000Y-103632000D01*
X166590000Y-104140000D02*
X168656000Y-104140000D01*
%TO.N,PWM*%
X164271900Y-104779100D02*
X164271900Y-104140000D01*
X165410800Y-105918000D02*
X164271900Y-104779100D01*
X164271900Y-104140000D02*
X162560000Y-104140000D01*
X174071800Y-105918000D02*
X165410800Y-105918000D01*
%TO.N,RLMT*%
X168801900Y-102370000D02*
X173714000Y-102370000D01*
X168301900Y-102870000D02*
X168801900Y-102370000D01*
X166590000Y-102870000D02*
X168301900Y-102870000D01*
%TO.N,QA*%
X162560000Y-102870000D02*
X160848100Y-102870000D01*
X175514000Y-99060000D02*
X170187100Y-99060000D01*
X160848100Y-98599600D02*
X160848100Y-102870000D01*
X161709700Y-97738000D02*
X160848100Y-98599600D01*
X169889000Y-97738000D02*
X161709700Y-97738000D01*
X170373600Y-98222600D02*
X169889000Y-97738000D01*
X170373600Y-98826400D02*
X170373600Y-98222600D01*
X170187100Y-99012900D02*
X170373600Y-98826400D01*
X170187100Y-99060000D02*
X170187100Y-99012900D01*
%TO.N,QB*%
X164735000Y-102063100D02*
X164271900Y-101600000D01*
X164735000Y-104523500D02*
X164735000Y-102063100D01*
X165020500Y-104809000D02*
X164735000Y-104523500D01*
X169518100Y-104809000D02*
X165020500Y-104809000D01*
X170187100Y-104140000D02*
X169518100Y-104809000D01*
X162560000Y-101600000D02*
X164271900Y-101600000D01*
X175514000Y-104140000D02*
X170187100Y-104140000D01*
%TO.N,FLMT*%
X168739400Y-100767500D02*
X173714000Y-100767500D01*
X168301900Y-100330000D02*
X168739400Y-100767500D01*
X166590000Y-100330000D02*
X168301900Y-100330000D01*
%TO.N,+5V*%
X166590000Y-99060000D02*
X168610900Y-99060000D01*
%TO.N,+3.3V*%
X162560000Y-99060000D02*
X164271900Y-99060000D01*
X165003200Y-98328700D02*
X164271900Y-99060000D01*
X169451700Y-98328700D02*
X165003200Y-98328700D01*
X169618100Y-98495100D02*
X169451700Y-98328700D01*
%TD*%
%TA.AperFunction,Conductor*%
%TO.N,GND*%
G36*
X169956539Y-103015185D02*
G01*
X170002294Y-103067989D01*
X170013500Y-103119500D01*
X170013500Y-103446699D01*
X169993815Y-103513738D01*
X169943418Y-103557406D01*
X169943422Y-103557413D01*
X169943388Y-103557432D01*
X169941011Y-103559493D01*
X169938751Y-103560499D01*
X169936708Y-103561383D01*
X169919466Y-103571579D01*
X169902005Y-103580133D01*
X169883374Y-103587510D01*
X169883362Y-103587517D01*
X169848033Y-103613185D01*
X169838273Y-103619596D01*
X169800680Y-103641829D01*
X169786514Y-103655995D01*
X169771724Y-103668627D01*
X169755514Y-103680404D01*
X169755511Y-103680407D01*
X169727673Y-103714058D01*
X169719811Y-103722697D01*
X169295328Y-104147181D01*
X169234005Y-104180666D01*
X169207647Y-104183500D01*
X168599000Y-104183500D01*
X168531961Y-104163815D01*
X168486206Y-104111011D01*
X168475000Y-104059500D01*
X168475000Y-103767172D01*
X168474999Y-103767155D01*
X168468598Y-103707627D01*
X168468595Y-103707616D01*
X168436298Y-103621024D01*
X168431313Y-103551333D01*
X168464797Y-103490009D01*
X168517884Y-103458613D01*
X168552290Y-103448618D01*
X168569529Y-103438422D01*
X168587003Y-103429862D01*
X168605627Y-103422488D01*
X168605627Y-103422487D01*
X168605632Y-103422486D01*
X168640983Y-103396800D01*
X168650714Y-103390408D01*
X168688320Y-103368170D01*
X168702489Y-103353999D01*
X168717279Y-103341368D01*
X168733487Y-103329594D01*
X168761338Y-103295926D01*
X168769169Y-103287319D01*
X169024672Y-103031816D01*
X169085994Y-102998334D01*
X169112352Y-102995500D01*
X169889500Y-102995500D01*
X169956539Y-103015185D01*
G37*
%TD.AperFunction*%
%TA.AperFunction,Conductor*%
G36*
X187649039Y-94253685D02*
G01*
X187694794Y-94306489D01*
X187706000Y-94358000D01*
X187706000Y-108842000D01*
X187686315Y-108909039D01*
X187633511Y-108954794D01*
X187582000Y-108966000D01*
X157350000Y-108966000D01*
X157282961Y-108946315D01*
X157237206Y-108893511D01*
X157226000Y-108842000D01*
X157226000Y-98579795D01*
X160217940Y-98579795D01*
X160222050Y-98623274D01*
X160222600Y-98634943D01*
X160222600Y-102799152D01*
X160220405Y-102822382D01*
X160218873Y-102830414D01*
X160222355Y-102885757D01*
X160222600Y-102893543D01*
X160222600Y-102909356D01*
X160224581Y-102925037D01*
X160225313Y-102932785D01*
X160228796Y-102988138D01*
X160231322Y-102995914D01*
X160236409Y-103018672D01*
X160237434Y-103026784D01*
X160237435Y-103026790D01*
X160237436Y-103026792D01*
X160239703Y-103032517D01*
X160257853Y-103078359D01*
X160260490Y-103085685D01*
X160277632Y-103138440D01*
X160282007Y-103145333D01*
X160292603Y-103166129D01*
X160295611Y-103173726D01*
X160295613Y-103173730D01*
X160295614Y-103173732D01*
X160328221Y-103218612D01*
X160332598Y-103225053D01*
X160362313Y-103271875D01*
X160362313Y-103271876D01*
X160368264Y-103277464D01*
X160383704Y-103294978D01*
X160388503Y-103301585D01*
X160431246Y-103336945D01*
X160437078Y-103342087D01*
X160477518Y-103380062D01*
X160484678Y-103383998D01*
X160503979Y-103397114D01*
X160510277Y-103402324D01*
X160510278Y-103402324D01*
X160510279Y-103402325D01*
X160560462Y-103425939D01*
X160567405Y-103429477D01*
X160616003Y-103456195D01*
X160616005Y-103456195D01*
X160616008Y-103456197D01*
X160621305Y-103457556D01*
X160623914Y-103458227D01*
X160645856Y-103466124D01*
X160648975Y-103467591D01*
X160701262Y-103513937D01*
X160720191Y-103581193D01*
X160712382Y-103623131D01*
X160680909Y-103707515D01*
X160680909Y-103707517D01*
X160674500Y-103767127D01*
X160674500Y-103767134D01*
X160674500Y-103767135D01*
X160674500Y-104512870D01*
X160674501Y-104512876D01*
X160680908Y-104572483D01*
X160731202Y-104707328D01*
X160731206Y-104707335D01*
X160817452Y-104822544D01*
X160817455Y-104822547D01*
X160932664Y-104908793D01*
X160932671Y-104908797D01*
X161067517Y-104959091D01*
X161067516Y-104959091D01*
X161074444Y-104959835D01*
X161127127Y-104965500D01*
X163584709Y-104965499D01*
X163651748Y-104985184D01*
X163691441Y-105026378D01*
X163703479Y-105046733D01*
X163712038Y-105064203D01*
X163719414Y-105082832D01*
X163745081Y-105118160D01*
X163751493Y-105127921D01*
X163773728Y-105165517D01*
X163773733Y-105165524D01*
X163787890Y-105179680D01*
X163800528Y-105194476D01*
X163812305Y-105210686D01*
X163812306Y-105210687D01*
X163845957Y-105238525D01*
X163854598Y-105246388D01*
X164909997Y-106301788D01*
X164919822Y-106314051D01*
X164920043Y-106313869D01*
X164925011Y-106319874D01*
X164974022Y-106365899D01*
X164976821Y-106368612D01*
X164996322Y-106388114D01*
X164996326Y-106388117D01*
X164996329Y-106388120D01*
X164999502Y-106390581D01*
X165008374Y-106398159D01*
X165040218Y-106428062D01*
X165057776Y-106437714D01*
X165074033Y-106448393D01*
X165089864Y-106460673D01*
X165119603Y-106473542D01*
X165129952Y-106478021D01*
X165140441Y-106483160D01*
X165164257Y-106496252D01*
X165178708Y-106504197D01*
X165191323Y-106507435D01*
X165198105Y-106509177D01*
X165216519Y-106515481D01*
X165234904Y-106523438D01*
X165278061Y-106530273D01*
X165289456Y-106532632D01*
X165331781Y-106543500D01*
X165351816Y-106543500D01*
X165371213Y-106545026D01*
X165390996Y-106548160D01*
X165434475Y-106544050D01*
X165446144Y-106543500D01*
X173368052Y-106543500D01*
X173435091Y-106563185D01*
X173460200Y-106584526D01*
X173465926Y-106590885D01*
X173465930Y-106590889D01*
X173619065Y-106702148D01*
X173619070Y-106702151D01*
X173791992Y-106779142D01*
X173791997Y-106779144D01*
X173977154Y-106818500D01*
X173977155Y-106818500D01*
X174166444Y-106818500D01*
X174166446Y-106818500D01*
X174351603Y-106779144D01*
X174524530Y-106702151D01*
X174677671Y-106590888D01*
X174804333Y-106450216D01*
X174898979Y-106286284D01*
X174957474Y-106106256D01*
X174977260Y-105918000D01*
X174962488Y-105777457D01*
X174975057Y-105708731D01*
X175022789Y-105657707D01*
X175085809Y-105640499D01*
X180561871Y-105640499D01*
X180561872Y-105640499D01*
X180621483Y-105634091D01*
X180756331Y-105583796D01*
X180871546Y-105497546D01*
X180957796Y-105382331D01*
X181008091Y-105247483D01*
X181014500Y-105187873D01*
X181014500Y-104140005D01*
X181390556Y-104140005D01*
X181410310Y-104454004D01*
X181410311Y-104454011D01*
X181469270Y-104763083D01*
X181566497Y-105062316D01*
X181566499Y-105062321D01*
X181700461Y-105347003D01*
X181700464Y-105347009D01*
X181869051Y-105612661D01*
X181869054Y-105612665D01*
X182069606Y-105855090D01*
X182069608Y-105855092D01*
X182298968Y-106070476D01*
X182298978Y-106070484D01*
X182553504Y-106255408D01*
X182553509Y-106255410D01*
X182553516Y-106255416D01*
X182829234Y-106406994D01*
X182829239Y-106406996D01*
X182829241Y-106406997D01*
X182829242Y-106406998D01*
X183121771Y-106522818D01*
X183121774Y-106522819D01*
X183386886Y-106590888D01*
X183426527Y-106601066D01*
X183492010Y-106609338D01*
X183738670Y-106640499D01*
X183738679Y-106640499D01*
X183738682Y-106640500D01*
X183738684Y-106640500D01*
X184053316Y-106640500D01*
X184053318Y-106640500D01*
X184053321Y-106640499D01*
X184053329Y-106640499D01*
X184239593Y-106616968D01*
X184365473Y-106601066D01*
X184670225Y-106522819D01*
X184670228Y-106522818D01*
X184962757Y-106406998D01*
X184962758Y-106406997D01*
X184962756Y-106406997D01*
X184962766Y-106406994D01*
X185238484Y-106255416D01*
X185493030Y-106070478D01*
X185722390Y-105855094D01*
X185922947Y-105612663D01*
X186091537Y-105347007D01*
X186225503Y-105062315D01*
X186322731Y-104763079D01*
X186381688Y-104454015D01*
X186381689Y-104454004D01*
X186401444Y-104140005D01*
X186401444Y-104139994D01*
X186381689Y-103825995D01*
X186381688Y-103825988D01*
X186381688Y-103825985D01*
X186322731Y-103516921D01*
X186225503Y-103217685D01*
X186204819Y-103173730D01*
X186138369Y-103032516D01*
X186091537Y-102932993D01*
X185941267Y-102696204D01*
X185922948Y-102667338D01*
X185922945Y-102667334D01*
X185722393Y-102424909D01*
X185722391Y-102424907D01*
X185493031Y-102209523D01*
X185493021Y-102209515D01*
X185238495Y-102024591D01*
X185238488Y-102024586D01*
X185238484Y-102024584D01*
X184962766Y-101873006D01*
X184962763Y-101873004D01*
X184962758Y-101873002D01*
X184962757Y-101873001D01*
X184670228Y-101757181D01*
X184670225Y-101757180D01*
X184525820Y-101720104D01*
X184465782Y-101684366D01*
X184434596Y-101621842D01*
X184442164Y-101552384D01*
X184486082Y-101498043D01*
X184525820Y-101479896D01*
X184670225Y-101442819D01*
X184670228Y-101442818D01*
X184962757Y-101326998D01*
X184962758Y-101326997D01*
X184962756Y-101326997D01*
X184962766Y-101326994D01*
X185238484Y-101175416D01*
X185493030Y-100990478D01*
X185722390Y-100775094D01*
X185922947Y-100532663D01*
X186091537Y-100267007D01*
X186225503Y-99982315D01*
X186322731Y-99683079D01*
X186381688Y-99374015D01*
X186401444Y-99060000D01*
X186381688Y-98745985D01*
X186322731Y-98436921D01*
X186225503Y-98137685D01*
X186091537Y-97852993D01*
X185941267Y-97616204D01*
X185922948Y-97587338D01*
X185922945Y-97587334D01*
X185722393Y-97344909D01*
X185722391Y-97344907D01*
X185504740Y-97140518D01*
X185493030Y-97129522D01*
X185493027Y-97129520D01*
X185493021Y-97129515D01*
X185238495Y-96944591D01*
X185238488Y-96944586D01*
X185238484Y-96944584D01*
X184962766Y-96793006D01*
X184962763Y-96793004D01*
X184962758Y-96793002D01*
X184962757Y-96793001D01*
X184670228Y-96677181D01*
X184670225Y-96677180D01*
X184365476Y-96598934D01*
X184365463Y-96598932D01*
X184053329Y-96559500D01*
X184053318Y-96559500D01*
X183738682Y-96559500D01*
X183738670Y-96559500D01*
X183426536Y-96598932D01*
X183426523Y-96598934D01*
X183121774Y-96677180D01*
X183121771Y-96677181D01*
X182829242Y-96793001D01*
X182829241Y-96793002D01*
X182553516Y-96944584D01*
X182553504Y-96944591D01*
X182298978Y-97129515D01*
X182298968Y-97129523D01*
X182069608Y-97344907D01*
X182069606Y-97344909D01*
X181869054Y-97587334D01*
X181869051Y-97587338D01*
X181700464Y-97852990D01*
X181700461Y-97852996D01*
X181566499Y-98137678D01*
X181566497Y-98137683D01*
X181469270Y-98436916D01*
X181410311Y-98745988D01*
X181410310Y-98745995D01*
X181390556Y-99059994D01*
X181390556Y-99060005D01*
X181410310Y-99374004D01*
X181410311Y-99374011D01*
X181431479Y-99484978D01*
X181469198Y-99682709D01*
X181469270Y-99683083D01*
X181566497Y-99982316D01*
X181566499Y-99982321D01*
X181700461Y-100267003D01*
X181700464Y-100267009D01*
X181869051Y-100532661D01*
X181869054Y-100532665D01*
X182069606Y-100775090D01*
X182069608Y-100775092D01*
X182298968Y-100990476D01*
X182298978Y-100990484D01*
X182553504Y-101175408D01*
X182553509Y-101175410D01*
X182553516Y-101175416D01*
X182829234Y-101326994D01*
X182829239Y-101326996D01*
X182829241Y-101326997D01*
X182829242Y-101326998D01*
X183045665Y-101412685D01*
X183121775Y-101442819D01*
X183247781Y-101475171D01*
X183266180Y-101479896D01*
X183326218Y-101515634D01*
X183357403Y-101578158D01*
X183349835Y-101647616D01*
X183305916Y-101701957D01*
X183266180Y-101720104D01*
X183121770Y-101757182D01*
X182829242Y-101873001D01*
X182829241Y-101873002D01*
X182553516Y-102024584D01*
X182553504Y-102024591D01*
X182298978Y-102209515D01*
X182298968Y-102209523D01*
X182069608Y-102424907D01*
X182069606Y-102424909D01*
X181869054Y-102667334D01*
X181869051Y-102667338D01*
X181700464Y-102932990D01*
X181700461Y-102932996D01*
X181566499Y-103217678D01*
X181566497Y-103217683D01*
X181469270Y-103516916D01*
X181410311Y-103825988D01*
X181410310Y-103825995D01*
X181390556Y-104139994D01*
X181390556Y-104140005D01*
X181014500Y-104140005D01*
X181014499Y-103092128D01*
X181008091Y-103032517D01*
X181007830Y-103031818D01*
X180957797Y-102897671D01*
X180957793Y-102897664D01*
X180871547Y-102782455D01*
X180871544Y-102782452D01*
X180756335Y-102696206D01*
X180756328Y-102696202D01*
X180621482Y-102645908D01*
X180621483Y-102645908D01*
X180561883Y-102639501D01*
X180561881Y-102639500D01*
X180561873Y-102639500D01*
X180561865Y-102639500D01*
X174728850Y-102639500D01*
X174661811Y-102619815D01*
X174616056Y-102567011D01*
X174605529Y-102502541D01*
X174619460Y-102370000D01*
X174599674Y-102181744D01*
X174541179Y-102001716D01*
X174446533Y-101837784D01*
X174319871Y-101697112D01*
X174281270Y-101669067D01*
X174238605Y-101613739D01*
X174232626Y-101544126D01*
X174265231Y-101482331D01*
X174281266Y-101468435D01*
X174319871Y-101440388D01*
X174446533Y-101299716D01*
X174541179Y-101135784D01*
X174599674Y-100955756D01*
X174619460Y-100767500D01*
X174612098Y-100697458D01*
X174624667Y-100628731D01*
X174672399Y-100577707D01*
X174735419Y-100560499D01*
X180561871Y-100560499D01*
X180561872Y-100560499D01*
X180621483Y-100554091D01*
X180756331Y-100503796D01*
X180871546Y-100417546D01*
X180957796Y-100302331D01*
X181008091Y-100167483D01*
X181014500Y-100107873D01*
X181014499Y-98012128D01*
X181008091Y-97952517D01*
X180957796Y-97817669D01*
X180957795Y-97817668D01*
X180957793Y-97817664D01*
X180871547Y-97702455D01*
X180871544Y-97702452D01*
X180756335Y-97616206D01*
X180756328Y-97616202D01*
X180621482Y-97565908D01*
X180621483Y-97565908D01*
X180561883Y-97559501D01*
X180561881Y-97559500D01*
X180561873Y-97559500D01*
X180561865Y-97559500D01*
X170646453Y-97559500D01*
X170579414Y-97539815D01*
X170558776Y-97523185D01*
X170389801Y-97354211D01*
X170379981Y-97341952D01*
X170379760Y-97342136D01*
X170374784Y-97336121D01*
X170325776Y-97290099D01*
X170322977Y-97287386D01*
X170303477Y-97267885D01*
X170303471Y-97267880D01*
X170300286Y-97265409D01*
X170291434Y-97257848D01*
X170259582Y-97227938D01*
X170259580Y-97227936D01*
X170259577Y-97227935D01*
X170242029Y-97218288D01*
X170225763Y-97207604D01*
X170209932Y-97195324D01*
X170169849Y-97177978D01*
X170159363Y-97172841D01*
X170121094Y-97151803D01*
X170121092Y-97151802D01*
X170101693Y-97146822D01*
X170083281Y-97140518D01*
X170064898Y-97132562D01*
X170064892Y-97132560D01*
X170021760Y-97125729D01*
X170010322Y-97123361D01*
X169968020Y-97112500D01*
X169968019Y-97112500D01*
X169947984Y-97112500D01*
X169928586Y-97110973D01*
X169921162Y-97109797D01*
X169908805Y-97107840D01*
X169908804Y-97107840D01*
X169865325Y-97111950D01*
X169853656Y-97112500D01*
X161792437Y-97112500D01*
X161776820Y-97110776D01*
X161776793Y-97111062D01*
X161769031Y-97110327D01*
X161701844Y-97112439D01*
X161697950Y-97112500D01*
X161670350Y-97112500D01*
X161666662Y-97112965D01*
X161666349Y-97113005D01*
X161654731Y-97113918D01*
X161611072Y-97115290D01*
X161611069Y-97115291D01*
X161591826Y-97120881D01*
X161572783Y-97124825D01*
X161552904Y-97127336D01*
X161552903Y-97127337D01*
X161512293Y-97143415D01*
X161501248Y-97147197D01*
X161459308Y-97159383D01*
X161459304Y-97159385D01*
X161442065Y-97169580D01*
X161424598Y-97178137D01*
X161405969Y-97185512D01*
X161405967Y-97185514D01*
X161370626Y-97211189D01*
X161360868Y-97217599D01*
X161323280Y-97239828D01*
X161309108Y-97254000D01*
X161294323Y-97266628D01*
X161278112Y-97278407D01*
X161250271Y-97312059D01*
X161242411Y-97320696D01*
X160464308Y-98098799D01*
X160452051Y-98108620D01*
X160452234Y-98108841D01*
X160446222Y-98113814D01*
X160400198Y-98162823D01*
X160397491Y-98165616D01*
X160377989Y-98185117D01*
X160377975Y-98185134D01*
X160375507Y-98188315D01*
X160367943Y-98197170D01*
X160338037Y-98229018D01*
X160338036Y-98229020D01*
X160328384Y-98246576D01*
X160317710Y-98262826D01*
X160305429Y-98278661D01*
X160305424Y-98278668D01*
X160288075Y-98318758D01*
X160282938Y-98329244D01*
X160261903Y-98367506D01*
X160256922Y-98386907D01*
X160250621Y-98405310D01*
X160242662Y-98423702D01*
X160242661Y-98423705D01*
X160235828Y-98466843D01*
X160233460Y-98478274D01*
X160222601Y-98520571D01*
X160222600Y-98520582D01*
X160222600Y-98540616D01*
X160221073Y-98560015D01*
X160217940Y-98579794D01*
X160217940Y-98579795D01*
X157226000Y-98579795D01*
X157226000Y-94358000D01*
X157245685Y-94290961D01*
X157298489Y-94245206D01*
X157350000Y-94234000D01*
X187582000Y-94234000D01*
X187649039Y-94253685D01*
G37*
%TD.AperFunction*%
%TD*%
M02*
