%TF.GenerationSoftware,KiCad,Pcbnew,7.0.10*%
%TF.CreationDate,2023-12-31T17:53:47-05:00*%
%TF.ProjectId,SRX Mag Encoder to SPARK MAX,53525820-4d61-4672-9045-6e636f646572,rev?*%
%TF.SameCoordinates,Original*%
%TF.FileFunction,Copper,L2,Bot*%
%TF.FilePolarity,Positive*%
%FSLAX46Y46*%
G04 Gerber Fmt 4.6, Leading zero omitted, Abs format (unit mm)*
G04 Created by KiCad (PCBNEW 7.0.10) date 2023-12-31 17:53:47*
%MOMM*%
%LPD*%
G01*
G04 APERTURE LIST*
%TA.AperFunction,SMDPad,CuDef*%
%ADD10R,2.108200X0.660400*%
%TD*%
%TA.AperFunction,ViaPad*%
%ADD11C,0.800000*%
%TD*%
%TA.AperFunction,ViaPad*%
%ADD12C,4.000000*%
%TD*%
%TA.AperFunction,Conductor*%
%ADD13C,0.250000*%
%TD*%
G04 APERTURE END LIST*
D10*
%TO.P,,1,Pin_1*%
%TO.N,+3.3V*%
X171914001Y-99060000D03*
%TO.P,,2,Pin_2*%
%TO.N,+5V*%
X175513999Y-99060000D03*
%TO.P,,3,Pin_3*%
%TO.N,unconnected-(J2-Pin_3-Pad3)*%
X171914001Y-100330000D03*
%TO.P,,4,Pin_4*%
%TO.N,FLMT*%
X175513999Y-100330000D03*
%TO.P,,5,Pin_5*%
%TO.N,unconnected-(J2-Pin_5-Pad5)*%
X171914001Y-101600000D03*
%TO.P,,6,Pin_6*%
%TO.N,PWM*%
X175513999Y-101600000D03*
%TO.P,,7,Pin_7*%
%TO.N,unconnected-(J2-Pin_7-Pad7)*%
X171914001Y-102870000D03*
%TO.P,,8,Pin_8*%
%TO.N,RLMT*%
X175513999Y-102870000D03*
%TO.P,,9,Pin_9*%
%TO.N,unconnected-(J2-Pin_9-Pad9)*%
X171914001Y-104140000D03*
%TO.P,,10,Pin_10*%
%TO.N,GND*%
X175513999Y-104140000D03*
%TD*%
D11*
%TO.N,GND*%
X160020000Y-99060000D03*
X160020000Y-101600000D03*
X160020000Y-104140000D03*
X180340000Y-96520000D03*
X177800000Y-96520000D03*
X175260000Y-96520000D03*
X172720000Y-96520000D03*
X170180000Y-96520000D03*
X167640000Y-96520000D03*
X165100000Y-96520000D03*
X162560000Y-96520000D03*
X160020000Y-96520000D03*
X180340000Y-106680000D03*
X177800000Y-106680000D03*
X175260000Y-106680000D03*
X172720000Y-106680000D03*
X170180000Y-106680000D03*
X167640000Y-106680000D03*
X165100000Y-106680000D03*
X162560000Y-106680000D03*
X160020000Y-106680000D03*
D12*
%TO.N,*%
X183896000Y-104140000D03*
X183896000Y-99060000D03*
D11*
%TO.N,GND*%
X169164000Y-103632000D03*
%TO.N,PWM*%
X174071800Y-105918000D03*
%TO.N,RLMT*%
X173714000Y-102370000D03*
%TO.N,FLMT*%
X173714000Y-100767500D03*
%TO.N,+5V*%
X168610900Y-99060000D03*
%TO.N,+3.3V*%
X169618100Y-98495100D03*
%TD*%
D13*
%TO.N,PWM*%
X176895000Y-101600000D02*
X175514000Y-101600000D01*
X176895000Y-104706600D02*
X176895000Y-101600000D01*
X174071800Y-105918000D02*
X175683600Y-105918000D01*
X175683600Y-105918000D02*
X176895000Y-104706600D01*
%TO.N,RLMT*%
X174133000Y-102789000D02*
X174133000Y-102870000D01*
X173714000Y-102370000D02*
X174133000Y-102789000D01*
X175514000Y-102870000D02*
X174133000Y-102870000D01*
%TO.N,FLMT*%
X174133000Y-100348500D02*
X174133000Y-100330000D01*
X173714000Y-100767500D02*
X174133000Y-100348500D01*
X175514000Y-100330000D02*
X174133000Y-100330000D01*
%TO.N,+5V*%
X168610900Y-98463300D02*
X168610900Y-99060000D01*
X169354400Y-97719800D02*
X168610900Y-98463300D01*
X172792800Y-97719800D02*
X169354400Y-97719800D01*
X174133000Y-99060000D02*
X172792800Y-97719800D01*
X175514000Y-99060000D02*
X174133000Y-99060000D01*
%TO.N,+3.3V*%
X171914000Y-99060000D02*
X170533000Y-99060000D01*
X169968100Y-98495100D02*
X169618100Y-98495100D01*
X170533000Y-99060000D02*
X169968100Y-98495100D01*
%TD*%
%TA.AperFunction,Conductor*%
%TO.N,GND*%
G36*
X187649039Y-94253685D02*
G01*
X187694794Y-94306489D01*
X187706000Y-94358000D01*
X187706000Y-108842000D01*
X187686315Y-108909039D01*
X187633511Y-108954794D01*
X187582000Y-108966000D01*
X157350000Y-108966000D01*
X157282961Y-108946315D01*
X157237206Y-108893511D01*
X157226000Y-108842000D01*
X157226000Y-99060000D01*
X167705440Y-99060000D01*
X167725226Y-99248256D01*
X167725227Y-99248259D01*
X167783718Y-99428277D01*
X167783721Y-99428284D01*
X167878367Y-99592216D01*
X167982892Y-99708302D01*
X168005029Y-99732888D01*
X168158165Y-99844148D01*
X168158170Y-99844151D01*
X168331092Y-99921142D01*
X168331097Y-99921144D01*
X168516254Y-99960500D01*
X168516255Y-99960500D01*
X168705544Y-99960500D01*
X168705546Y-99960500D01*
X168890703Y-99921144D01*
X169063630Y-99844151D01*
X169216771Y-99732888D01*
X169343433Y-99592216D01*
X169375795Y-99536163D01*
X169421154Y-99457600D01*
X169471721Y-99409384D01*
X169528541Y-99395600D01*
X169712744Y-99395600D01*
X169712746Y-99395600D01*
X169870605Y-99362046D01*
X169940269Y-99367362D01*
X169984064Y-99395655D01*
X170032197Y-99443788D01*
X170042022Y-99456051D01*
X170042243Y-99455869D01*
X170047211Y-99461874D01*
X170096222Y-99507899D01*
X170099021Y-99510612D01*
X170118522Y-99530114D01*
X170118526Y-99530117D01*
X170118529Y-99530120D01*
X170121702Y-99532581D01*
X170130574Y-99540159D01*
X170162418Y-99570062D01*
X170179976Y-99579714D01*
X170196235Y-99590395D01*
X170212064Y-99602673D01*
X170252155Y-99620021D01*
X170262626Y-99625151D01*
X170276050Y-99632531D01*
X170300902Y-99646194D01*
X170300903Y-99646194D01*
X170300908Y-99646197D01*
X170307266Y-99647829D01*
X170310395Y-99648633D01*
X170370433Y-99684371D01*
X170401618Y-99746895D01*
X170395739Y-99812069D01*
X170365811Y-99892311D01*
X170365810Y-99892315D01*
X170365810Y-99892317D01*
X170359401Y-99951927D01*
X170359401Y-99951934D01*
X170359401Y-99951935D01*
X170359401Y-100708070D01*
X170359402Y-100708076D01*
X170365809Y-100767683D01*
X170416106Y-100902535D01*
X170417767Y-100905577D01*
X170418503Y-100908962D01*
X170419204Y-100910841D01*
X170418933Y-100910941D01*
X170432617Y-100973850D01*
X170417767Y-101024423D01*
X170416106Y-101027464D01*
X170376721Y-101133062D01*
X170365810Y-101162317D01*
X170359401Y-101221927D01*
X170359401Y-101221934D01*
X170359401Y-101221935D01*
X170359401Y-101978070D01*
X170359402Y-101978076D01*
X170365809Y-102037683D01*
X170416106Y-102172535D01*
X170417767Y-102175577D01*
X170418503Y-102178962D01*
X170419204Y-102180841D01*
X170418933Y-102180941D01*
X170432617Y-102243850D01*
X170417767Y-102294423D01*
X170416106Y-102297464D01*
X170365811Y-102432313D01*
X170365810Y-102432317D01*
X170359401Y-102491927D01*
X170359401Y-102491934D01*
X170359401Y-102491935D01*
X170359401Y-103248070D01*
X170359402Y-103248076D01*
X170365809Y-103307683D01*
X170416106Y-103442535D01*
X170417767Y-103445577D01*
X170418503Y-103448962D01*
X170419204Y-103450841D01*
X170418933Y-103450941D01*
X170432617Y-103513850D01*
X170417767Y-103564423D01*
X170416106Y-103567464D01*
X170366413Y-103700699D01*
X170365810Y-103702317D01*
X170359401Y-103761927D01*
X170359401Y-103761934D01*
X170359401Y-103761935D01*
X170359401Y-104518070D01*
X170359402Y-104518076D01*
X170365809Y-104577683D01*
X170416103Y-104712528D01*
X170416107Y-104712535D01*
X170502353Y-104827744D01*
X170502356Y-104827747D01*
X170617565Y-104913993D01*
X170617572Y-104913997D01*
X170752418Y-104964291D01*
X170752417Y-104964291D01*
X170759345Y-104965035D01*
X170812028Y-104970700D01*
X173015973Y-104970699D01*
X173075584Y-104964291D01*
X173210432Y-104913996D01*
X173325647Y-104827746D01*
X173411897Y-104712531D01*
X173462192Y-104577683D01*
X173468601Y-104518073D01*
X173468600Y-103761928D01*
X173462192Y-103702317D01*
X173459198Y-103694291D01*
X173411898Y-103567471D01*
X173410238Y-103564431D01*
X173409501Y-103561044D01*
X173408798Y-103559159D01*
X173409068Y-103559057D01*
X173395384Y-103496159D01*
X173410238Y-103445569D01*
X173411894Y-103442534D01*
X173411897Y-103442531D01*
X173449218Y-103342467D01*
X173491089Y-103286535D01*
X173556553Y-103262117D01*
X173591175Y-103264510D01*
X173612406Y-103269023D01*
X173666195Y-103298064D01*
X173667395Y-103296614D01*
X173716146Y-103336945D01*
X173721978Y-103342087D01*
X173762418Y-103380062D01*
X173769578Y-103383998D01*
X173788879Y-103397114D01*
X173795177Y-103402324D01*
X173795178Y-103402324D01*
X173795179Y-103402325D01*
X173845362Y-103425939D01*
X173852305Y-103429477D01*
X173900903Y-103456195D01*
X173900905Y-103456195D01*
X173900908Y-103456197D01*
X173906205Y-103457556D01*
X173908814Y-103458227D01*
X173930756Y-103466124D01*
X173932678Y-103467028D01*
X173984965Y-103513374D01*
X174003894Y-103580630D01*
X173996084Y-103622568D01*
X173966302Y-103702416D01*
X173966300Y-103702427D01*
X173959899Y-103761955D01*
X173959899Y-103890000D01*
X175639999Y-103890000D01*
X175707038Y-103909685D01*
X175752793Y-103962489D01*
X175763999Y-104014000D01*
X175763999Y-104901648D01*
X175744314Y-104968687D01*
X175727680Y-104989329D01*
X175460828Y-105256181D01*
X175399505Y-105289666D01*
X175373147Y-105292500D01*
X174775548Y-105292500D01*
X174708509Y-105272815D01*
X174683400Y-105251474D01*
X174677673Y-105245114D01*
X174677672Y-105245113D01*
X174677671Y-105245112D01*
X174608033Y-105194517D01*
X174565369Y-105139188D01*
X174559390Y-105069574D01*
X174591996Y-105007779D01*
X174652835Y-104973422D01*
X174680920Y-104970200D01*
X175263999Y-104970200D01*
X175263999Y-104390000D01*
X173959899Y-104390000D01*
X173959899Y-104518044D01*
X173966300Y-104577572D01*
X173966302Y-104577579D01*
X174016544Y-104712286D01*
X174016548Y-104712293D01*
X174096571Y-104819189D01*
X174120989Y-104884653D01*
X174106138Y-104952926D01*
X174056733Y-105002332D01*
X173997305Y-105017500D01*
X173977154Y-105017500D01*
X173944697Y-105024398D01*
X173791997Y-105056855D01*
X173791992Y-105056857D01*
X173619070Y-105133848D01*
X173619065Y-105133851D01*
X173465929Y-105245111D01*
X173339266Y-105385785D01*
X173244621Y-105549715D01*
X173244618Y-105549722D01*
X173186127Y-105729740D01*
X173186126Y-105729744D01*
X173166340Y-105918000D01*
X173186126Y-106106256D01*
X173186127Y-106106259D01*
X173244618Y-106286277D01*
X173244621Y-106286284D01*
X173339267Y-106450216D01*
X173460201Y-106584526D01*
X173465929Y-106590888D01*
X173619065Y-106702148D01*
X173619070Y-106702151D01*
X173791992Y-106779142D01*
X173791997Y-106779144D01*
X173977154Y-106818500D01*
X173977155Y-106818500D01*
X174166444Y-106818500D01*
X174166446Y-106818500D01*
X174351603Y-106779144D01*
X174524530Y-106702151D01*
X174677671Y-106590888D01*
X174680588Y-106587647D01*
X174683400Y-106584526D01*
X174742887Y-106547879D01*
X174775548Y-106543500D01*
X175600857Y-106543500D01*
X175616477Y-106545224D01*
X175616504Y-106544939D01*
X175624260Y-106545671D01*
X175624267Y-106545673D01*
X175691473Y-106543561D01*
X175695368Y-106543500D01*
X175722946Y-106543500D01*
X175722950Y-106543500D01*
X175726924Y-106542997D01*
X175738563Y-106542080D01*
X175782227Y-106540709D01*
X175801469Y-106535117D01*
X175820512Y-106531174D01*
X175840392Y-106528664D01*
X175881001Y-106512585D01*
X175892044Y-106508803D01*
X175933990Y-106496618D01*
X175951229Y-106486422D01*
X175968703Y-106477862D01*
X175987327Y-106470488D01*
X175987327Y-106470487D01*
X175987332Y-106470486D01*
X176022683Y-106444800D01*
X176032414Y-106438408D01*
X176070020Y-106416170D01*
X176084189Y-106401999D01*
X176098979Y-106389368D01*
X176115187Y-106377594D01*
X176143038Y-106343926D01*
X176150879Y-106335309D01*
X177278787Y-105207402D01*
X177291042Y-105197586D01*
X177290859Y-105197364D01*
X177296868Y-105192391D01*
X177296877Y-105192386D01*
X177342949Y-105143322D01*
X177345566Y-105140623D01*
X177365120Y-105121071D01*
X177367576Y-105117903D01*
X177375156Y-105109027D01*
X177405062Y-105077182D01*
X177414713Y-105059624D01*
X177425396Y-105043361D01*
X177437673Y-105027536D01*
X177455021Y-104987444D01*
X177460151Y-104976971D01*
X177481197Y-104938692D01*
X177486180Y-104919280D01*
X177492481Y-104900880D01*
X177500437Y-104882496D01*
X177507270Y-104839348D01*
X177509633Y-104827938D01*
X177520500Y-104785619D01*
X177520500Y-104765583D01*
X177522027Y-104746182D01*
X177525160Y-104726404D01*
X177521050Y-104682924D01*
X177520500Y-104671255D01*
X177520500Y-104140005D01*
X181390556Y-104140005D01*
X181410310Y-104454004D01*
X181410311Y-104454011D01*
X181422532Y-104518073D01*
X181459626Y-104712531D01*
X181469270Y-104763083D01*
X181566497Y-105062316D01*
X181566499Y-105062321D01*
X181700461Y-105347003D01*
X181700464Y-105347009D01*
X181869051Y-105612661D01*
X181869054Y-105612665D01*
X182069606Y-105855090D01*
X182069608Y-105855092D01*
X182298968Y-106070476D01*
X182298978Y-106070484D01*
X182553504Y-106255408D01*
X182553509Y-106255410D01*
X182553516Y-106255416D01*
X182829234Y-106406994D01*
X182829239Y-106406996D01*
X182829241Y-106406997D01*
X182829242Y-106406998D01*
X183121771Y-106522818D01*
X183121774Y-106522819D01*
X183386886Y-106590888D01*
X183426527Y-106601066D01*
X183492010Y-106609338D01*
X183738670Y-106640499D01*
X183738679Y-106640499D01*
X183738682Y-106640500D01*
X183738684Y-106640500D01*
X184053316Y-106640500D01*
X184053318Y-106640500D01*
X184053321Y-106640499D01*
X184053329Y-106640499D01*
X184239593Y-106616968D01*
X184365473Y-106601066D01*
X184670225Y-106522819D01*
X184701509Y-106510433D01*
X184962757Y-106406998D01*
X184962758Y-106406997D01*
X184962756Y-106406997D01*
X184962766Y-106406994D01*
X185238484Y-106255416D01*
X185493030Y-106070478D01*
X185722390Y-105855094D01*
X185922947Y-105612663D01*
X186091537Y-105347007D01*
X186225503Y-105062315D01*
X186322731Y-104763079D01*
X186381688Y-104454015D01*
X186381689Y-104454004D01*
X186401444Y-104140005D01*
X186401444Y-104139994D01*
X186381689Y-103825995D01*
X186381688Y-103825988D01*
X186381688Y-103825985D01*
X186322731Y-103516921D01*
X186225503Y-103217685D01*
X186091537Y-102932993D01*
X185922947Y-102667337D01*
X185922945Y-102667334D01*
X185722393Y-102424909D01*
X185722391Y-102424907D01*
X185529586Y-102243850D01*
X185493030Y-102209522D01*
X185493027Y-102209520D01*
X185493021Y-102209515D01*
X185238495Y-102024591D01*
X185238488Y-102024586D01*
X185238484Y-102024584D01*
X184962766Y-101873006D01*
X184962763Y-101873004D01*
X184962758Y-101873002D01*
X184962757Y-101873001D01*
X184670228Y-101757181D01*
X184670225Y-101757180D01*
X184525820Y-101720104D01*
X184465782Y-101684366D01*
X184434596Y-101621842D01*
X184442164Y-101552384D01*
X184486082Y-101498043D01*
X184525820Y-101479896D01*
X184670225Y-101442819D01*
X184670228Y-101442818D01*
X184962757Y-101326998D01*
X184962758Y-101326997D01*
X184962756Y-101326997D01*
X184962766Y-101326994D01*
X185238484Y-101175416D01*
X185493030Y-100990478D01*
X185722390Y-100775094D01*
X185922947Y-100532663D01*
X186091537Y-100267007D01*
X186225503Y-99982315D01*
X186322731Y-99683079D01*
X186381688Y-99374015D01*
X186382806Y-99356244D01*
X186401444Y-99060005D01*
X186401444Y-99059994D01*
X186381689Y-98745995D01*
X186381688Y-98745988D01*
X186381688Y-98745985D01*
X186322731Y-98436921D01*
X186225503Y-98137685D01*
X186212605Y-98110276D01*
X186091538Y-97852996D01*
X186091537Y-97852993D01*
X185922947Y-97587337D01*
X185922945Y-97587334D01*
X185722393Y-97344909D01*
X185722391Y-97344907D01*
X185668030Y-97293858D01*
X185493030Y-97129522D01*
X185493027Y-97129520D01*
X185493021Y-97129515D01*
X185238495Y-96944591D01*
X185238488Y-96944586D01*
X185238484Y-96944584D01*
X184962766Y-96793006D01*
X184962763Y-96793004D01*
X184962758Y-96793002D01*
X184962757Y-96793001D01*
X184670228Y-96677181D01*
X184670225Y-96677180D01*
X184365476Y-96598934D01*
X184365463Y-96598932D01*
X184053329Y-96559500D01*
X184053318Y-96559500D01*
X183738682Y-96559500D01*
X183738670Y-96559500D01*
X183426536Y-96598932D01*
X183426523Y-96598934D01*
X183121774Y-96677180D01*
X183121771Y-96677181D01*
X182829242Y-96793001D01*
X182829241Y-96793002D01*
X182553516Y-96944584D01*
X182553504Y-96944591D01*
X182298978Y-97129515D01*
X182298968Y-97129523D01*
X182069608Y-97344907D01*
X182069606Y-97344909D01*
X181869054Y-97587334D01*
X181869051Y-97587338D01*
X181700464Y-97852990D01*
X181700461Y-97852996D01*
X181566499Y-98137678D01*
X181566497Y-98137683D01*
X181469270Y-98436916D01*
X181410311Y-98745988D01*
X181410310Y-98745995D01*
X181390556Y-99059994D01*
X181390556Y-99060005D01*
X181410310Y-99374004D01*
X181410311Y-99374011D01*
X181428644Y-99470116D01*
X181463646Y-99653604D01*
X181469270Y-99683083D01*
X181566497Y-99982316D01*
X181566499Y-99982321D01*
X181700461Y-100267003D01*
X181700464Y-100267009D01*
X181869051Y-100532661D01*
X181869054Y-100532665D01*
X182069606Y-100775090D01*
X182069608Y-100775092D01*
X182069610Y-100775094D01*
X182214166Y-100910841D01*
X182298968Y-100990476D01*
X182298978Y-100990484D01*
X182553504Y-101175408D01*
X182553509Y-101175410D01*
X182553516Y-101175416D01*
X182829234Y-101326994D01*
X182829239Y-101326996D01*
X182829241Y-101326997D01*
X182829242Y-101326998D01*
X183114786Y-101440051D01*
X183121775Y-101442819D01*
X183243587Y-101474095D01*
X183266180Y-101479896D01*
X183326218Y-101515634D01*
X183357403Y-101578158D01*
X183349835Y-101647616D01*
X183305916Y-101701957D01*
X183266180Y-101720104D01*
X183121770Y-101757182D01*
X182829242Y-101873001D01*
X182829241Y-101873002D01*
X182553516Y-102024584D01*
X182553504Y-102024591D01*
X182298978Y-102209515D01*
X182298968Y-102209523D01*
X182069608Y-102424907D01*
X182069606Y-102424909D01*
X181869054Y-102667334D01*
X181869051Y-102667338D01*
X181700464Y-102932990D01*
X181700461Y-102932996D01*
X181566499Y-103217678D01*
X181566497Y-103217683D01*
X181469270Y-103516916D01*
X181410311Y-103825988D01*
X181410310Y-103825995D01*
X181390556Y-104139994D01*
X181390556Y-104140005D01*
X177520500Y-104140005D01*
X177520500Y-101670844D01*
X177522697Y-101647606D01*
X177524227Y-101639586D01*
X177520745Y-101584241D01*
X177520500Y-101576455D01*
X177520500Y-101560650D01*
X177520499Y-101560646D01*
X177520481Y-101560500D01*
X177518516Y-101544951D01*
X177517788Y-101537260D01*
X177514304Y-101481862D01*
X177511779Y-101474092D01*
X177506687Y-101451314D01*
X177505664Y-101443208D01*
X177485233Y-101391606D01*
X177482608Y-101384315D01*
X177465467Y-101331559D01*
X177461089Y-101324661D01*
X177450495Y-101303868D01*
X177447486Y-101296268D01*
X177447484Y-101296265D01*
X177447483Y-101296263D01*
X177431930Y-101274857D01*
X177414870Y-101251377D01*
X177410501Y-101244947D01*
X177395897Y-101221935D01*
X177380786Y-101198123D01*
X177374833Y-101192533D01*
X177359398Y-101175025D01*
X177354594Y-101168413D01*
X177354591Y-101168411D01*
X177354591Y-101168410D01*
X177311862Y-101133062D01*
X177306018Y-101127910D01*
X177265584Y-101089940D01*
X177265577Y-101089934D01*
X177258415Y-101085997D01*
X177239114Y-101072880D01*
X177232824Y-101067677D01*
X177232823Y-101067676D01*
X177182620Y-101044052D01*
X177175720Y-101040536D01*
X177127092Y-101013803D01*
X177127089Y-101013802D01*
X177127085Y-101013800D01*
X177119174Y-101011769D01*
X177097209Y-101003860D01*
X177095743Y-101003170D01*
X177043469Y-100956810D01*
X177024557Y-100889549D01*
X177032367Y-100847643D01*
X177035963Y-100837998D01*
X177062190Y-100767683D01*
X177068599Y-100708073D01*
X177068598Y-99951928D01*
X177062190Y-99892317D01*
X177052747Y-99867000D01*
X177011896Y-99757471D01*
X177010236Y-99754431D01*
X177009499Y-99751044D01*
X177008796Y-99749159D01*
X177009066Y-99749057D01*
X176995382Y-99686159D01*
X177010236Y-99635569D01*
X177011892Y-99632534D01*
X177011895Y-99632531D01*
X177062190Y-99497683D01*
X177068599Y-99438073D01*
X177068598Y-98681928D01*
X177062190Y-98622317D01*
X177011895Y-98487469D01*
X177011894Y-98487468D01*
X177011892Y-98487464D01*
X176925646Y-98372255D01*
X176925643Y-98372252D01*
X176810434Y-98286006D01*
X176810427Y-98286002D01*
X176675581Y-98235708D01*
X176675582Y-98235708D01*
X176615982Y-98229301D01*
X176615980Y-98229300D01*
X176615972Y-98229300D01*
X176615963Y-98229300D01*
X174412028Y-98229300D01*
X174412022Y-98229301D01*
X174352417Y-98235708D01*
X174311187Y-98251086D01*
X174241496Y-98256069D01*
X174180175Y-98222584D01*
X173293603Y-97336012D01*
X173283780Y-97323750D01*
X173283559Y-97323934D01*
X173278586Y-97317922D01*
X173229576Y-97271899D01*
X173226777Y-97269186D01*
X173207277Y-97249685D01*
X173207271Y-97249680D01*
X173204086Y-97247209D01*
X173195234Y-97239648D01*
X173163382Y-97209738D01*
X173163380Y-97209736D01*
X173163377Y-97209735D01*
X173145829Y-97200088D01*
X173129563Y-97189404D01*
X173113732Y-97177124D01*
X173073649Y-97159778D01*
X173063163Y-97154641D01*
X173024894Y-97133603D01*
X173024892Y-97133602D01*
X173005493Y-97128622D01*
X172987081Y-97122318D01*
X172968698Y-97114362D01*
X172968692Y-97114360D01*
X172925560Y-97107529D01*
X172914122Y-97105161D01*
X172871820Y-97094300D01*
X172871819Y-97094300D01*
X172851784Y-97094300D01*
X172832386Y-97092773D01*
X172824962Y-97091597D01*
X172812605Y-97089640D01*
X172812604Y-97089640D01*
X172769125Y-97093750D01*
X172757456Y-97094300D01*
X169437143Y-97094300D01*
X169421522Y-97092575D01*
X169421496Y-97092861D01*
X169413734Y-97092127D01*
X169413733Y-97092127D01*
X169362088Y-97093750D01*
X169346527Y-97094239D01*
X169342632Y-97094300D01*
X169315047Y-97094300D01*
X169311061Y-97094803D01*
X169299433Y-97095718D01*
X169255773Y-97097090D01*
X169236529Y-97102681D01*
X169217479Y-97106625D01*
X169197611Y-97109134D01*
X169197610Y-97109134D01*
X169156999Y-97125213D01*
X169145954Y-97128994D01*
X169104014Y-97141179D01*
X169104010Y-97141181D01*
X169086766Y-97151379D01*
X169069305Y-97159933D01*
X169050674Y-97167310D01*
X169050662Y-97167317D01*
X169015333Y-97192985D01*
X169005573Y-97199396D01*
X168967980Y-97221629D01*
X168953814Y-97235795D01*
X168939024Y-97248427D01*
X168922814Y-97260204D01*
X168922811Y-97260207D01*
X168894973Y-97293858D01*
X168887111Y-97302497D01*
X168227108Y-97962499D01*
X168214851Y-97972320D01*
X168215034Y-97972541D01*
X168209022Y-97977514D01*
X168162998Y-98026523D01*
X168160291Y-98029316D01*
X168140789Y-98048817D01*
X168140775Y-98048834D01*
X168138307Y-98052015D01*
X168130743Y-98060870D01*
X168100837Y-98092718D01*
X168100836Y-98092720D01*
X168091184Y-98110276D01*
X168080510Y-98126526D01*
X168068229Y-98142361D01*
X168068224Y-98142368D01*
X168050875Y-98182458D01*
X168045738Y-98192944D01*
X168024703Y-98231206D01*
X168019722Y-98250607D01*
X168013421Y-98269010D01*
X168005462Y-98287402D01*
X168005461Y-98287405D01*
X167998628Y-98330543D01*
X167996260Y-98341976D01*
X167984127Y-98389235D01*
X167956172Y-98441372D01*
X167878366Y-98527784D01*
X167783721Y-98691715D01*
X167783718Y-98691722D01*
X167725227Y-98871740D01*
X167725226Y-98871744D01*
X167705440Y-99060000D01*
X157226000Y-99060000D01*
X157226000Y-94358000D01*
X157245685Y-94290961D01*
X157298489Y-94245206D01*
X157350000Y-94234000D01*
X187582000Y-94234000D01*
X187649039Y-94253685D01*
G37*
%TD.AperFunction*%
%TD*%
M02*
